# xmcd
#
# Track frame offsets: 
#        150
#        12839
#        33893
#        57404
#        75233
#        89022
#        111796
#        130462
#        150488
#        175078
#        195830
#        214921
#        241154
#        276212
#        291111
#        302173
#
# Disc length: 4229 seconds
#
# Revision: 3
# Processed by: cddbd v1.5.2PL0 Copyright (c) Steve Scherf et al.
# Submitted via: ExactAudioCopy v1.0b6
#
DISCID=d0108310
DTITLE=Jazz for Bar and Lounge - Bar and Lounge Music best of CD2
DYEAR=2009
DGENRE=Jazz
TTITLE0=Dave Brubeck - Don't Get Around Much Anymore (1978)
TTITLE1=Rick Braun - Grover's Groove (2001)
TTITLE2=Yellowjackets - Homecoming (1985)
TTITLE3=Earl Klugh - Every Moment With You (1991)
TTITLE4=The Modern Jazz Quartet - In A Crowd (1964)
TTITLE5=Soel - Black Women (2003)
TTITLE6=Randy Crawford - Almaz (1986)
TTITLE7=Lee Ritenour - Is It You? (1981)
TTITLE8=Lee Konitz - Cork 'n' Bib (1956)
TTITLE9=Bill Frisell - 1968 (2004)
TTITLE10=Peabo Bryson - If Ever You're In My Arms Again (1992)
TTITLE11=Joshua Redman Quartet - Mischief (1984)
TTITLE12=Herbie Mann - Comin' Home Baby
TTITLE13=Mose Allison - Parchman Farm (1958)
TTITLE14=Mel Torme - Lullaby Of Birdland (1964)
TTITLE15=Renee Olstead - Is You Is Or Is You Ain't My Baby (2004)
EXTD=YEAR: 2009
EXTT0=
EXTT1=
EXTT2=
EXTT3=
EXTT4=
EXTT5=
EXTT6=
EXTT7=
EXTT8=
EXTT9=
EXTT10=
EXTT11=
EXTT12=
EXTT13=
EXTT14=
EXTT15=
PLAYORDER=
